/usr/bin/start-video-rec.sh: line 93: kill: (594) - No such process
ffmpeg version 2.8.17-0ubuntu0.1 Copyright (c) 2000-2020 the FFmpeg developers
  built with gcc 5.4.0 (Ubuntu 5.4.0-6ubuntu1~16.04.12) 20160609
  configuration: --prefix=/usr --extra-version=0ubuntu0.1 --build-suffix=-ffmpeg --toolchain=hardened --libdir=/usr/lib/x86_64-linux-gnu --incdir=/usr/include/x86_64-linux-gnu --cc=cc --cxx=g++ --enable-gpl --enable-shared --disable-stripping --disable-decoder=libopenjpeg --disable-decoder=libschroedinger --enable-avresample --enable-avisynth --enable-gnutls --enable-ladspa --enable-libass --enable-libbluray --enable-libbs2b --enable-libcaca --enable-libcdio --enable-libflite --enable-libfontconfig --enable-libfreetype --enable-libfribidi --enable-libgme --enable-libgsm --enable-libmodplug --enable-libmp3lame --enable-libopenjpeg --enable-libopus --enable-libpulse --enable-librtmp --enable-libschroedinger --enable-libshine --enable-libsnappy --enable-libsoxr --enable-libspeex --enable-libssh --enable-libtheora --enable-libtwolame --enable-libvorbis --enable-libvpx --enable-libwavpack --enable-libwebp --enable-libx265 --enable-libxvid --enable-libzvbi --enable-openal --enable-opengl --enable-x11grab --enable-libdc1394 --enable-libiec61883 --enable-libzmq --enable-frei0r --enable-libx264 --enable-libopencv
  libavutil      54. 31.100 / 54. 31.100
  libavcodec     56. 60.100 / 56. 60.100
  libavformat    56. 40.101 / 56. 40.101
  libavdevice    56.  4.100 / 56.  4.100
  libavfilter     5. 40.101 /  5. 40.101
  libavresample   2.  1.  0 /  2.  1.  0
  libswscale      3.  1.101 /  3.  1.101
  libswresample   1.  2.101 /  1.  2.101
  libpostproc    53.  3.100 / 53.  3.100
Input #0, matroska,webm, from '/home/seluser/videos/vid_chrome_or_firefox_40004.mkv':
  Metadata:
    ENCODER         : Lavf56.40.101
  Duration: 00:00:39.30, start: 0.000000, bitrate: 233 kb/s
    Stream #0:0: Video: h264 (Constrained Baseline), yuv420p, 1366x768, SAR 1:1 DAR 683:384, 10 fps, 10 tbr, 1k tbn, 20 tbc (default)
    Metadata:
      ENCODER         : Lavc56.60.100 libx264
      DURATION        : 00:00:39.300000000
[libx264 @ 0xfc1740] using SAR=1/1
[libx264 @ 0xfc1740] using cpu capabilities: MMX2 SSE2Fast SSSE3 SSE4.2 AVX FMA3 AVX2 LZCNT BMI2
[libx264 @ 0xfc1740] profile Constrained Baseline, level 3.2
[libx264 @ 0xfc1740] 264 - core 148 r2643 5c65704 - H.264/MPEG-4 AVC codec - Copyleft 2003-2015 - http://www.videolan.org/x264.html - options: cabac=0 ref=1 deblock=0:0:0 analyse=0:0 me=dia subme=0 psy=1 psy_rd=1.00:0.00 mixed_ref=0 me_range=16 chroma_me=1 trellis=0 8x8dct=0 cqm=0 deadzone=21,11 fast_pskip=1 chroma_qp_offset=0 threads=3 lookahead_threads=1 sliced_threads=0 nr=0 decimate=1 interlaced=0 bluray_compat=0 constrained_intra=0 bframes=0 weightp=0 keyint=250 keyint_min=10 scenecut=0 intra_refresh=0 rc=crf mbtree=0 crf=23.0 qcomp=0.60 qpmin=0 qpmax=69 qpstep=4 ip_ratio=1.40 aq=0
Output #0, mp4, to '/home/seluser/videos/vid_chrome_or_firefox_40004.mp4':
  Metadata:
    encoder         : Lavf56.40.101
    Stream #0:0: Video: h264 (libx264) ([33][0][0][0] / 0x0021), yuv420p, 1366x768 [SAR 1:1 DAR 683:384], q=-1--1, 10 fps, 10240 tbn, 10 tbc (default)
    Metadata:
      DURATION        : 00:00:39.300000000
      encoder         : Lavc56.60.100 libx264
Stream mapping:
  Stream #0:0 -> #0:0 (h264 (native) -> h264 (libx264))
Press [q] to stop, [?] for help
frame=   98 fps=0.0 q=12.0 size=     342kB time=00:00:09.40 bitrate= 298.4kbits/s    
frame=  127 fps=126 q=9.0 size=     616kB time=00:00:12.30 bitrate= 410.5kbits/s    
frame=  161 fps=106 q=9.0 size=     671kB time=00:00:15.70 bitrate= 350.2kbits/s    
frame=  193 fps= 95 q=9.0 size=     673kB time=00:00:18.90 bitrate= 291.6kbits/s    
frame=  223 fps= 88 q=9.0 size=     674kB time=00:00:21.90 bitrate= 252.3kbits/s    
frame=  256 fps= 83 q=15.0 size=     847kB time=00:00:25.20 bitrate= 275.3kbits/s    
frame=  283 fps= 79 q=16.0 size=    1016kB time=00:00:27.90 bitrate= 298.3kbits/s    
frame=  319 fps= 78 q=9.0 size=    1074kB time=00:00:31.50 bitrate= 279.2kbits/s    
frame=  360 fps= 78 q=9.0 size=    1076kB time=00:00:35.60 bitrate= 247.5kbits/s    
frame=  393 fps= 77 q=-1.0 Lsize=    1120kB time=00:00:39.30 bitrate= 233.6kbits/s    
video:1118kB audio:0kB subtitle:0kB other streams:0kB global headers:0kB muxing overhead: 0.210396%
[libx264 @ 0xfc1740] frame I:2     Avg QP:13.50  size: 77906
[libx264 @ 0xfc1740] frame P:391   Avg QP:10.26  size:  2528
[libx264 @ 0xfc1740] mb I  I16..4: 100.0%  0.0%  0.0%
[libx264 @ 0xfc1740] mb P  I16..4:  2.7%  0.0%  0.0%  P16..4:  2.4%  0.0%  0.0%  0.0%  0.0%    skip:94.9%
[libx264 @ 0xfc1740] coded y,uvDC,uvAC intra: 12.1% 8.2% 7.5% inter: 1.0% 1.1% 0.7%
[libx264 @ 0xfc1740] i16 v,h,dc,p: 76% 22%  1%  1%
[libx264 @ 0xfc1740] i8c dc,h,v,p: 83% 14%  2%  1%
[libx264 @ 0xfc1740] kb/s:232.95
